<?xml version="1.0" encoding="UTF-8" standalone="no"?>
<!-- Created with Inkscape (http://www.inkscape.org/) -->

<svg
   width="100"
   height="100"
   viewBox="0 0 26.458333 26.458333"
   version="1.1"
   id="svg1"
   xmlns="http://www.w3.org/2000/svg"
   xmlns:svg="http://www.w3.org/2000/svg">
  <defs
     id="defs1">
    <linearGradient
       id="swatch2">
      <stop
         style="stop-color:#000000;stop-opacity:1;"
         offset="0"
         id="stop2" />
    </linearGradient>
  </defs>
  <g
     id="layer1"
     style="display:none">
    <g
       id="g11"
       transform="scale(1.0793614)">
      <circle
         style="fill:#000000;fill-opacity:0;stroke:#000000;stroke-width:0.481775;stroke-dasharray:none;stroke-opacity:1"
         id="path1"
         cx="12.285276"
         cy="12.285276"
         r="12.044389" />
      <rect
         style="fill:#000000;fill-opacity:0;stroke:#000000;stroke-width:0.240888;stroke-dasharray:none;stroke-opacity:1"
         id="rect2"
         width="17.033415"
         height="17.033415"
         x="3.7686822"
         y="3.7686949" />
      <path
         style="fill:#000000;fill-opacity:0;stroke:#000000;stroke-width:0.240888;stroke-dasharray:none;stroke-opacity:1"
         d="M 3.7601567,20.813292 20.834556,3.7186576"
         id="path2" />
      <path
         style="fill:#000000;fill-opacity:0;stroke:#000000;stroke-width:0.192658;stroke-dasharray:none;stroke-opacity:1"
         d="M 7.3050847,7.2185885 20.807604,20.807636"
         id="path3" />
      <rect
         style="fill:#000000;fill-opacity:0;stroke:#000000;stroke-width:0.240888;stroke-dasharray:none;stroke-opacity:1"
         id="rect3"
         width="10.220145"
         height="10.220145"
         x="7.1819439"
         y="7.1026602" />
      <path
         style="fill:#000000;fill-opacity:0;stroke:#000000;stroke-width:0.240888;stroke-dasharray:none;stroke-opacity:1"
         d="m 17.282197,17.272179 c 0,0 2.340013,0.05136 3.483758,-0.107653 0.975782,-0.135665 1.712351,-0.535745 2.08438,-0.812229 1.030926,-0.766148 1.458091,-2.98468 1.458091,-2.98468"
         id="path4" />
    </g>
  </g>
  <g
     id="layer2"
     style="display:inline">
    <g
       id="g14"
       transform="matrix(1.9231864,0,0,1.9231864,26.40615,-58.56749)">
      <path
         style="fill:#ddb43b;fill-opacity:1;stroke:none;stroke-width:1;stroke-dasharray:none;stroke-opacity:1"
         d="m -13.443555,43.763366 2.685839,-2.671477 7.6266318,0.01437 2.65711272,2.657113 z"
         id="path14" />
      <path
         style="fill:#f57b00;fill-opacity:1;stroke:none;stroke-width:1;stroke-dasharray:none;stroke-opacity:1"
         d="m -6.9515817,37.228306 -3.8061343,3.863583 h 7.6266318 z"
         id="path13" />
      <path
         style="fill:#c01632;fill-opacity:1;stroke:none;stroke-width:1;stroke-dasharray:none;stroke-opacity:1"
         d="m -3.0305449,33.307268 c -2.6044494,0.01436 -5.2088987,0.02873 -7.8133481,0.04309 1.3022247,1.302225 2.6044495,2.604451 3.9066742,3.906676 1.3022246,-1.316589 2.6044493,-2.633177 3.9066739,-3.949766 z"
         id="path12" />
      <path
         style="display:inline;fill:#ff0000;fill-opacity:0;stroke:#000000;stroke-width:0.183775;stroke-dasharray:none;stroke-opacity:1"
         d="m -13.49298,30.783227 12.88132729,-0.029 -12.83854229,13.043297 12.89834629,-0.01496 -10.29681629,-10.436017 7.7160044,-0.04485 -7.6561994,7.819538 7.7298067,0.01496 c 0,0 0.7279151,0.04765 1.2762934,-0.267626 0.82739328,-0.475692 1.11831003,-0.868751 1.49147921,-2.443537"
         id="path5" />
    </g>
  </g>
</svg>
